<?xml version="1.0" encoding="UTF-8" standalone="no"?>
<!-- Created with Inkscape (http://www.inkscape.org/) -->

<svg
   xmlns:dc="http://purl.org/dc/elements/1.1/"
   xmlns:cc="http://creativecommons.org/ns#"
   xmlns:rdf="http://www.w3.org/1999/02/22-rdf-syntax-ns#"
   xmlns:svg="http://www.w3.org/2000/svg"
   xmlns="http://www.w3.org/2000/svg"
   xmlns:sodipodi="http://sodipodi.sourceforge.net/DTD/sodipodi-0.dtd"
   xmlns:inkscape="http://www.inkscape.org/namespaces/inkscape"
   width="768"
   height="256"
   viewBox="0 0 203.2 67.733335"
   version="1.1"
   id="svg8"
   inkscape:version="0.92.5 (2060ec1f9f, 2020-04-08)"
   sodipodi:docname="Zeichnung.svg">
  <defs
     id="defs2" />
  <sodipodi:namedview
     id="base"
     pagecolor="#ffffff"
     bordercolor="#666666"
     borderopacity="1.0"
     inkscape:pageopacity="0.0"
     inkscape:pageshadow="2"
     inkscape:zoom="1.0488751"
     inkscape:cx="402.03551"
     inkscape:cy="138.34467"
     inkscape:document-units="mm"
     inkscape:current-layer="layer1"
     showgrid="true"
     units="px"
     inkscape:window-width="1920"
     inkscape:window-height="1057"
     inkscape:window-x="1016"
     inkscape:window-y="14"
     inkscape:window-maximized="1">
    <inkscape:grid
       type="xygrid"
       id="grid815"
       empspacing="16" />
  </sodipodi:namedview>
  <metadata
     id="metadata5">
    <rdf:RDF>
      <cc:Work
         rdf:about="">
        <dc:format>image/svg+xml</dc:format>
        <dc:type
           rdf:resource="http://purl.org/dc/dcmitype/StillImage" />
        <dc:title></dc:title>
      </cc:Work>
    </rdf:RDF>
  </metadata>
  <g
     inkscape:label="Ebene 1"
     inkscape:groupmode="layer"
     id="layer1"
     transform="translate(0,-229.26664)">
    <path
       style="fill:#0000ff;fill-opacity:1;stroke:#000000;stroke-width:3;stroke-linecap:round;stroke-linejoin:round;stroke-miterlimit:4;stroke-dasharray:none;stroke-opacity:1"
       d="M 383.82422 16 A 112 112 0 0 0 272 128.11719 A 112 112 0 0 0 384.05859 240 A 112 112 0 0 0 496 128 L 496 127.76562 A 112 112 0 0 0 383.82422 16 z M 383.875 48 A 79.999998 79.999998 0 0 1 464 127.83203 L 464 128 A 79.999998 79.999998 0 0 1 384.04102 208 A 79.999998 79.999998 0 0 1 304 128.08398 A 79.999998 79.999998 0 0 1 383.875 48 z "
       transform="matrix(0.26458333,0,0,0.26458333,0,229.26664)"
       id="path825" />
    <path
       style="fill:#ff0000;fill-opacity:1;stroke:#000000;stroke-width:0.79374999;stroke-linecap:round;stroke-linejoin:round;stroke-miterlimit:4;stroke-dasharray:none;stroke-opacity:1"
       d="m 142.39256,242.17938 20.95393,20.95393 -20.95393,20.95393 5.98684,5.98683 20.95393,-20.95393 20.95393,20.95393 5.98684,-5.98683 -20.95393,-20.95393 20.95393,-20.95393 -5.98684,-5.98684 -20.95393,20.95393 -20.95393,-20.95393 z"
       id="rect842"
       inkscape:connector-curvature="0" />
  </g>
</svg>
